<svg width="128" height="128" viewBox="0 0 128 128" fill="none" xmlns="http://www.w3.org/2000/svg">
<path d="M89.0548 105.885L80.9026 114.053C62.5805 132.422 32.9816 132.645 14.3761 114.729C-4.93132 96.1359 -4.62764 65.0488 14.3018 46.091C14.3018 46.091 39.4872 20.9266 45.8375 14.5848C46.4516 13.9695 47.4639 13.9628 48.0847 14.5848L48.6786 15.1797C53.794 20.3046 53.794 28.6341 48.6921 33.7589L25.2614 57.2872C12.9589 69.6125 12.1896 89.7265 24.1749 102.363C36.5718 115.425 57.2087 115.641 69.8486 102.964L77.7308 95.0676C77.5756 97.887 78.5744 100.774 80.7271 102.931C82.9879 105.229 86.0787 106.21 89.0548 105.885Z" fill="#501A89"/>
<path d="M125.712 58.0791C127.237 59.6071 128 61.6219 128 63.6231C128 65.6244 127.237 67.6392 125.712 69.1672L98.1717 96.7588C98.4956 93.7704 97.5104 90.6874 95.2294 88.4022C93.0699 86.2387 90.195 85.238 87.3741 85.4003L114.645 58.0791C117.695 55.0164 122.648 55.0096 125.712 58.0791Z" fill="#501A89"/>
<path d="M67.2438 71.5263L70.3684 74.6566L114.092 30.8521C117.162 27.7759 122.136 27.7759 125.2 30.8521C128.27 33.9284 128.27 38.9112 125.2 41.9807L88.5083 78.7402C82.2119 85.0482 73.6684 87.7256 65.4555 86.7588C63.4714 86.5221 61.5076 86.0827 59.6045 85.4269C58.1131 84.9198 56.6689 84.2775 55.2652 83.5067C52.991 82.256 50.845 80.6671 48.9149 78.7335C46.9849 76.7998 45.399 74.6498 44.1505 72.3714C43.3812 70.9651 42.7401 69.5182 42.2339 68.0241C41.3094 65.3332 40.81 62.5274 40.729 59.708C40.5063 52.2642 43.2394 44.7527 48.9149 39.0667L85.6064 2.30719C88.677 -0.769063 93.6506 -0.769063 96.7144 2.30719C99.785 5.38344 99.785 10.3663 96.7144 13.4358L52.991 57.2403L56.1156 60.3706L110.893 5.49162C113.964 2.41536 118.937 2.41536 122.001 5.49162C125.072 8.56787 125.072 13.5507 122.001 16.6202L67.2438 71.5263Z" fill="#501A89"/>
<path d="M91.9028 91.7284C94.231 94.061 94.0623 97.9418 91.4101 100.051C89.4058 101.64 86.4702 101.627 84.4862 100.011C81.8678 97.8809 81.7193 94.0339 84.034 91.7149C86.2003 89.5446 89.723 89.5446 91.9028 91.7284Z" fill="#501A89"/>
</svg>
